REM DIRINDEX 1\2\6,1\2\7,1\2\8,1\2\9,1\3\10,1\3\11,1\4\12,1\4\13,1\4\14,1\5\15,1\5\16,1\5\17
REM DIRNAME cjc029,folder01,folder02,folder03,folder04,folder05,folder06,folder07,folder08,folder09,folder10,folder11,folder12,folder13,folder14,folder15,folder16
TITLE ""
FILE "1400_2_sec07_0601_0615.mp3" MP3
  TRACK 01 AUDIO
    TITLE "0:"
    INDEX 01 00:00:00
  TRACK 02 AUDIO
    TITLE "12:cjc029_2791"
    INDEX 01 00:03:27
  TRACK 03 AUDIO
    TITLE "0:"
    INDEX 01 00:08:15
  TRACK 04 AUDIO
    TITLE "12:cjc029_2792"
    INDEX 01 00:08:66
  TRACK 05 AUDIO
    TITLE "0:"
    INDEX 01 00:10:31
  TRACK 06 AUDIO
    TITLE "12:cjc029_2793"
    INDEX 01 00:11:05
  TRACK 07 AUDIO
    TITLE "0:"
    INDEX 01 00:12:28
  TRACK 08 AUDIO
    TITLE "13:cjc029_2794"
    INDEX 01 00:13:28
  TRACK 09 AUDIO
    TITLE "0:"
    INDEX 01 00:14:41
  TRACK 10 AUDIO
    TITLE "14:cjc029_2795"
    INDEX 01 00:14:45
  TRACK 11 AUDIO
    TITLE "0:"
    INDEX 01 00:15:68
  TRACK 12 AUDIO
    TITLE "13:cjc029_2796"
    INDEX 01 00:16:49
  TRACK 13 AUDIO
    TITLE "0:"
    INDEX 01 00:17:59
  TRACK 14 AUDIO
    TITLE "14:cjc029_2797"
    INDEX 01 00:17:63
  TRACK 15 AUDIO
    TITLE "0:"
    INDEX 01 00:19:22
  TRACK 16 AUDIO
    TITLE "13:cjc029_2798"
    INDEX 01 00:20:04
  TRACK 17 AUDIO
    TITLE "0:"
    INDEX 01 00:21:11
  TRACK 18 AUDIO
    TITLE "14:cjc029_2799"
    INDEX 01 00:21:15
  TRACK 19 AUDIO
    TITLE "0:"
    INDEX 01 00:25:05
  TRACK 20 AUDIO
    TITLE "13:cjc029_2800"
    INDEX 01 00:25:60
  TRACK 21 AUDIO
    TITLE "0:"
    INDEX 01 00:26:71
  TRACK 22 AUDIO
    TITLE "14:cjc029_2801"
    INDEX 01 00:27:00
  TRACK 23 AUDIO
    TITLE "0:"
    INDEX 01 00:28:23
  TRACK 24 AUDIO
    TITLE "13:cjc029_2802"
    INDEX 01 00:29:03
  TRACK 25 AUDIO
    TITLE "0:"
    INDEX 01 00:30:26
  TRACK 26 AUDIO
    TITLE "14:cjc029_2803"
    INDEX 01 00:30:30
  TRACK 27 AUDIO
    TITLE "0:"
    INDEX 01 00:31:57
  TRACK 28 AUDIO
    TITLE "13:cjc029_2804"
    INDEX 01 00:32:39
  TRACK 29 AUDIO
    TITLE "0:"
    INDEX 01 00:33:71
  TRACK 30 AUDIO
    TITLE "14:cjc029_2805"
    INDEX 01 00:34:00
  TRACK 31 AUDIO
    TITLE "0:"
    INDEX 01 00:35:04
  TRACK 32 AUDIO
    TITLE "13:cjc029_2806"
    INDEX 01 00:35:59
  TRACK 33 AUDIO
    TITLE "0:"
    INDEX 01 00:37:12
  TRACK 34 AUDIO
    TITLE "14:cjc029_2807"
    INDEX 01 00:37:16
  TRACK 35 AUDIO
    TITLE "0:"
    INDEX 01 00:38:47
  TRACK 36 AUDIO
    TITLE "13:cjc029_2808"
    INDEX 01 00:39:27
  TRACK 37 AUDIO
    TITLE "0:"
    INDEX 01 00:40:48
  TRACK 38 AUDIO
    TITLE "14:cjc029_2809"
    INDEX 01 00:40:52
  TRACK 39 AUDIO
    TITLE "0:"
    INDEX 01 00:43:40
  TRACK 40 AUDIO
    TITLE "13:cjc029_2810"
    INDEX 01 00:44:28
  TRACK 41 AUDIO
    TITLE "0:"
    INDEX 01 00:45:43
  TRACK 42 AUDIO
    TITLE "14:cjc029_2811"
    INDEX 01 00:45:47
  TRACK 43 AUDIO
    TITLE "0:"
    INDEX 01 00:46:70
  TRACK 44 AUDIO
    TITLE "13:cjc029_2812"
    INDEX 01 00:47:54
  TRACK 45 AUDIO
    TITLE "0:"
    INDEX 01 00:49:04
  TRACK 46 AUDIO
    TITLE "14:cjc029_2813"
    INDEX 01 00:49:08
  TRACK 47 AUDIO
    TITLE "0:"
    INDEX 01 00:50:48
  TRACK 48 AUDIO
    TITLE "13:cjc029_2814"
    INDEX 01 00:51:28
  TRACK 49 AUDIO
    TITLE "0:"
    INDEX 01 00:52:63
  TRACK 50 AUDIO
    TITLE "14:cjc029_2815"
    INDEX 01 00:52:67
  TRACK 51 AUDIO
    TITLE "0:"
    INDEX 01 00:54:38
  TRACK 52 AUDIO
    TITLE "13:cjc029_2816"
    INDEX 01 00:55:18
  TRACK 53 AUDIO
    TITLE "0:"
    INDEX 01 00:56:31
  TRACK 54 AUDIO
    TITLE "14:cjc029_2817"
    INDEX 01 00:56:33
  TRACK 55 AUDIO
    TITLE "0:"
    INDEX 01 01:00:04
  TRACK 56 AUDIO
    TITLE "13:cjc029_2818"
    INDEX 01 01:00:62
  TRACK 57 AUDIO
    TITLE "0:"
    INDEX 01 01:02:08
  TRACK 58 AUDIO
    TITLE "14:cjc029_2819"
    INDEX 01 01:02:18
  TRACK 59 AUDIO
    TITLE "0:"
    INDEX 01 01:03:49
  TRACK 60 AUDIO
    TITLE "13:cjc029_2820"
    INDEX 01 01:04:29
  TRACK 61 AUDIO
    TITLE "0:"
    INDEX 01 01:05:34
  TRACK 62 AUDIO
    TITLE "14:cjc029_2821"
    INDEX 01 01:05:40
  TRACK 63 AUDIO
    TITLE "0:"
    INDEX 01 01:07:45
  TRACK 64 AUDIO
    TITLE "13:cjc029_2822"
    INDEX 01 01:08:25
  TRACK 65 AUDIO
    TITLE "0:"
    INDEX 01 01:09:36
  TRACK 66 AUDIO
    TITLE "14:cjc029_2823"
    INDEX 01 01:09:40
  TRACK 67 AUDIO
    TITLE "0:"
    INDEX 01 01:10:69
